<svg width="32" height="32" viewBox="0 0 32 32" fill="none" xmlns="http://www.w3.org/2000/svg" role="img" aria-label="Google Ads">
  <rect width="32" height="32" rx="7" fill="#fff"/>
  <path d="M10.9 7.6c.5-.9 1.7-1.2 2.6-.7.9.5 1.2 1.7.7 2.6l-5.7 9.9c-.5.9-1.7 1.2-2.6.7-.9-.5-1.2-1.7-.7-2.6l5.7-9.9z" fill="#FBBC04"/>
  <path d="M21.1 7.6c-.5-.9-1.7-1.2-2.6-.7-.9.5-1.2 1.6-.7 2.5l5.7 9.9c.5.9 1.7 1.2 2.6.7.9-.5 1.2-1.7.7-2.6l-5.7-9.8z" fill="#4285F4"/>
  <circle cx="8.4" cy="22.4" r="2.4" fill="#34A853"/>
</svg>
