<svg width="32" height="32" viewBox="0 0 32 32" fill="none" xmlns="http://www.w3.org/2000/svg" role="img" aria-label="HubSpot">
  <rect width="32" height="32" rx="7" fill="#FF7A59"/>
  <path d="M21.5 13.6V11c.7-.3 1.1-1 1.1-1.7v-.1c0-1-.8-1.8-1.8-1.8h-.1c-1 0-1.8.8-1.8 1.8v.1c0 .8.4 1.4 1.1 1.7v2.6c-1 .2-1.9.6-2.6 1.2l-6.8-5.3c0-.2.1-.4.1-.5 0-1.2-.9-2.1-2.1-2.1S6.4 7.8 6.4 9s.9 2.1 2.1 2.1c.4 0 .8-.1 1.1-.3l6.7 5.2c-.6.9-.9 1.9-.9 3 0 1.2.4 2.3 1.1 3.2l-2 2c-.2-.1-.3-.1-.5-.1-.8 0-1.5.7-1.5 1.5s.7 1.5 1.5 1.5 1.5-.7 1.5-1.5c0-.2 0-.3-.1-.5l2-2c.9.7 2 1.1 3.2 1.1 2.9 0 5.2-2.3 5.2-5.2 0-2.5-1.8-4.6-4.1-5.1zm-1.1 7.8c-1.5 0-2.7-1.2-2.7-2.7s1.2-2.7 2.7-2.7 2.7 1.2 2.7 2.7-1.2 2.7-2.7 2.7z" fill="#fff"/>
</svg>
