<svg width="32" height="32" viewBox="0 0 32 32" fill="none" xmlns="http://www.w3.org/2000/svg" role="img" aria-label="Meta Ads">
  <rect width="32" height="32" rx="7" fill="#fff"/>
  <path d="M6 19.6c0-2.9 1-5.4 2.2-6.9.9-1.1 1.9-1.7 3.1-1.7 1.4 0 2.4.8 3.6 2.7.2.3.4.6.6 1 .3-.5.6-1 .9-1.4 1.3-1.7 2.4-2.3 3.7-2.3 1.4 0 2.5.7 3.4 2 .9 1.4 1.5 3.5 1.5 5.7 0 1.4-.3 2.4-.9 3.1-.5.6-1.2.9-2 .9-1.1 0-1.9-.5-2.8-2-.6-1-1.1-2.1-1.6-3.2l-.7-1.6c-.3.7-.6 1.4-.9 2.1-.7 1.6-1.3 2.7-2 3.5-.7.8-1.5 1.2-2.5 1.2-1.6 0-2.9-1.3-3.6-3.2-.3-.8-.5-1.7-.5-2.6z" fill="#0081FB"/>
  <path d="M7.3 12.6c1.1-1.4 2.6-2.4 4.4-2.4 1 0 2 .3 3.1 1.2-1.1.8-1.8 1.6-2.6 2.9-.2-.4-.4-.7-.6-1-1.2-1.9-2.2-2.7-3.6-2.7-.3 0-.5.1-.7.0z" fill="url(#meta-a)"/>
  <path d="M11.5 14.3c-.4-1.3-1.4-3.4-2.6-4.4C7.7 9 6.6 9 5.6 10c-1.2 1.5-2.2 4-2.2 6.9 0 .9.2 1.8.5 2.6.4-2.2 1.4-4.1 2.6-5.4 1.3-1.4 2.8-2.1 5-1.8v2z" fill="url(#meta-b)"/>
  <defs>
    <linearGradient id="meta-a" x1="8" y1="11" x2="14" y2="14" gradientUnits="userSpaceOnUse">
      <stop stop-color="#0064E1"/><stop offset="1" stop-color="#0081FB"/>
    </linearGradient>
    <linearGradient id="meta-b" x1="5" y1="16" x2="11" y2="13" gradientUnits="userSpaceOnUse">
      <stop stop-color="#0064E1"/><stop offset="1" stop-color="#0081FB"/>
    </linearGradient>
  </defs>
</svg>
