<svg width="32" height="32" viewBox="0 0 32 32" fill="none" xmlns="http://www.w3.org/2000/svg" role="img" aria-label="Shiprocket">
  <rect width="32" height="32" rx="7" fill="#6F42C1"/>
  <path d="M22.5 7.5c-3.4.3-6.2 1.9-8.3 4.6l-1.9-.4c-.7-.1-1.4.1-1.9.6l-2.2 2.2 3.4 1.2c-.2.5-.3 1-.5 1.5l1.9 1.9c.5-.1 1-.3 1.5-.5l1.2 3.4 2.2-2.2c.5-.5.7-1.2.6-1.9l-.4-1.9c2.7-2.1 4.3-4.9 4.6-8.3.0-.4-.3-.7-.7-.7zM18.5 14c-.7 0-1.2-.5-1.2-1.2s.5-1.2 1.2-1.2 1.2.5 1.2 1.2-.5 1.2-1.2 1.2z" fill="#fff"/>
  <path d="M9.5 21.5c-.9.9-2.3 1.1-2.3 1.1s.2-1.4 1.1-2.3c.5-.5 1.4-.5 1.9 0 .5.5.5 1.2-.7 1.2z" fill="#FF6B6B"/>
  <path d="M9.5 21.5c-.9.9-2.3 1.1-2.3 1.1s.2-1.4 1.1-2.3c.5-.5 1.2-.5 1.7 0 .5.5.5 1.2-.5 1.2z" fill="#fff"/>
</svg>
