<svg width="32" height="32" viewBox="0 0 32 32" fill="none" xmlns="http://www.w3.org/2000/svg" role="img" aria-label="Shopify">
  <rect width="32" height="32" rx="7" fill="#95BF47"/>
  <path d="M20.4 9.9c-.1 0-1.5.3-1.5.3s-1-1-1.1-1.1c-.1-.1-.3-.1-.4-.1l-.6 14.6 5.1-1.1s-1.4-9.6-1.4-9.7c0-.2-.2-.3-.3-.3l-.7-.1c0-.2-.1-.4-.2-.6-.1-.5-.5-1-1.1-1.2 0 0 0-.1 0-.1l1.3-.5c.5.5.7 1.3.7 2 .1 0 .2 0 .2 0z" fill="#fff"/>
  <path d="M12.6 8.5c-.1 0-.2.1-.3.1-.1-.5-.4-1.1-.8-1.5-.5-.5-1.1-.6-1.6-.4-1.3.4-2 2.1-2.4 3.8l-1.7.5c-.5.2-.5.2-.6.7-.1.4-1.4 10.6-1.4 10.6l9.5 1.7.9-15.2c-.6.1-1.1.3-1.3.3.1-.7 0-1.4-.3-1.8-.1-.2-.3-.4-.5-.5-.3-.1-.7-.1-1.1.1l-.6.3zm-.4 1.8l-1.9.6c.2-.7.5-1.4 1-1.7.2-.1.4-.2.6-.1.2.4.3.8.3 1.2zm-1.4-2.7c.2 0 .3.1.4.2-.3.1-.6.4-.8.8-.3.4-.5 1-.7 1.6l-1.5.5c.4-1.4 1.1-2.8 2.1-3.1.2-.1.4-.1.5-.1v.1z" fill="#5E8E3E"/>
  <path d="M16.1 14.2l-.6 1.6s-.6-.3-1.3-.3c-1 0-1.1.6-1.1.8 0 .9 2.4 1.2 2.4 3.4 0 1.7-1.1 2.8-2.6 2.8-1.8 0-2.7-1.1-2.7-1.1l.5-1.6s.9.8 1.7.8c.5 0 .7-.4.7-.7 0-1.2-2-1.2-2-3.2 0-1.7 1.2-3.3 3.6-3.3 1 0 1.5.3 1.5.3l-.3.2-.0.0z" fill="#fff"/>
</svg>
