<svg width="32" height="32" viewBox="0 0 32 32" fill="none" xmlns="http://www.w3.org/2000/svg" role="img" aria-label="WhatsApp">
  <rect width="32" height="32" rx="7" fill="#25D366"/>
  <path d="M16 7c-5 0-9 4-9 9 0 1.6.4 3.1 1.2 4.4L7 25l4.7-1.2c1.3.7 2.8 1.1 4.3 1.1 5 0 9-4 9-9s-4-8.9-9-8.9zm0 16.2c-1.4 0-2.7-.4-3.9-1.1l-.3-.2-2.8.7.7-2.7-.2-.3c-.8-1.2-1.2-2.6-1.2-4.1 0-4.1 3.4-7.5 7.5-7.5s7.5 3.4 7.5 7.5-3.2 7.7-7.3 7.7zm4.1-5.6c-.2-.1-1.3-.7-1.5-.7-.2-.1-.4-.1-.5.1-.1.2-.6.7-.7.9-.1.1-.3.2-.5.1-.2-.1-1-.4-1.8-1.1-.7-.6-1.1-1.4-1.3-1.6-.1-.2 0-.4.1-.5l.4-.4c.1-.1.2-.3.2-.4.1-.1 0-.3 0-.4 0-.1-.5-1.3-.7-1.7-.2-.4-.4-.4-.5-.4h-.5c-.1 0-.4.1-.6.3-.2.2-.8.8-.8 1.9 0 1.1.8 2.2.9 2.4.1.2 1.6 2.5 3.9 3.4.5.2 1 .4 1.3.5.5.2 1 .1 1.4.1.4-.1 1.3-.5 1.5-1.1.2-.5.2-1 .1-1.1 0-.1-.2-.2-.4-.3z" fill="#fff"/>
</svg>
