<svg width="32" height="32" viewBox="0 0 32 32" fill="none" xmlns="http://www.w3.org/2000/svg" role="img" aria-label="WooCommerce">
  <rect width="32" height="32" rx="7" fill="#7F54B3"/>
  <path d="M7 13.5c.2-.8.7-1.2 1.4-1.3.6 0 1 .4 1.1 1.1.2 1.4.4 2.6.6 3.7l1.6-3.1c.2-.4.5-.6.8-.6.5 0 .8.3.9.9.2 1.1.4 2.1.7 3 .2-1.9.5-3.3.9-4.2.1-.3.3-.5.6-.6.2 0 .4 0 .6.2.2.1.3.3.3.6 0 .2 0 .4-.1.5-.5 1-.9 2.6-1.2 4.8-.1.6-.5.9-1.1.9-.5 0-.8-.4-1.1-1.2-.2-.6-.4-1.4-.6-2.4-.3.6-.5 1.1-.7 1.4-.3.6-.6.9-1 .9-.4 0-.7-.4-1-1.1-.4-1.2-.7-2.6-.8-4.2-.2 0-.3 0-.4.1-.1 0-.1-.4-.3-.6z" fill="#fff"/>
  <path d="M19.5 13.4c.6 0 1.1.2 1.5.6.4.4.6 1 .6 1.7 0 .9-.2 1.7-.7 2.4-.5.8-1.1 1.2-1.9 1.2-.6 0-1.1-.2-1.4-.6-.4-.4-.6-1-.6-1.7 0-.9.2-1.7.7-2.4.5-.8 1.2-1.2 1.8-1.2zm-.2 3.7c.3-.3.4-.7.4-1.2 0-.4-.1-.7-.4-.9-.1-.1-.3-.1-.4 0-.3.4-.5 1-.5 1.7v.3c.1.4.3.5.5.4.1 0 .3-.1.4-.3v0z" fill="#fff"/>
  <path d="M24.4 13.4c.6 0 1.1.2 1.5.6.4.4.6 1 .6 1.7 0 .9-.2 1.7-.7 2.4-.5.8-1.1 1.2-1.9 1.2-.6 0-1.1-.2-1.4-.6-.4-.4-.6-1-.6-1.7 0-.9.2-1.7.7-2.4.5-.8 1.2-1.2 1.8-1.2zm-.2 3.7c.3-.3.4-.7.4-1.2 0-.4-.1-.7-.4-.9-.1-.1-.3-.1-.4 0-.3.4-.5 1-.5 1.7v.3c.1.4.3.5.5.4.1 0 .3-.1.4-.3v0z" fill="#fff"/>
</svg>
